<svg width="16" height="16" viewBox="0 0 16 16" fill="none" xmlns="http://www.w3.org/2000/svg">
<g id="check-box / default">
<path id="Vector" d="M2.81449 14.6666C2.40708 14.6666 2.05819 14.5217 1.76782 14.2318C1.47795 13.9415 1.33301 13.5926 1.33301 13.1852V2.81479C1.33301 2.40739 1.47795 2.0585 1.76782 1.76813C2.05819 1.47825 2.40708 1.33331 2.81449 1.33331H13.1849C13.5923 1.33331 13.9412 1.47825 14.2315 1.76813C14.5214 2.0585 14.6663 2.40739 14.6663 2.81479V13.1852C14.6663 13.5926 14.5214 13.9415 14.2315 14.2318C13.9412 14.5217 13.5923 14.6666 13.1849 14.6666H2.81449ZM6.96264 10.7963C7.0614 10.7963 7.154 10.781 7.24042 10.7503C7.32684 10.7192 7.40708 10.6666 7.48116 10.5926L11.6849 6.38887C11.8207 6.25307 11.8886 6.0864 11.8886 5.88887C11.8886 5.69134 11.8145 5.5185 11.6663 5.37035C11.5305 5.23455 11.3577 5.16665 11.1478 5.16665C10.9379 5.16665 10.7651 5.23455 10.6293 5.37035L6.96264 9.03702L5.35153 7.42591C5.21572 7.2901 5.04906 7.2222 4.85153 7.2222C4.654 7.2222 4.48116 7.29628 4.33301 7.44442C4.19721 7.58023 4.1293 7.75307 4.1293 7.96294C4.1293 8.17282 4.19721 8.34566 4.33301 8.48146L6.44412 10.5926C6.51819 10.6666 6.59844 10.7192 6.68486 10.7503C6.77128 10.781 6.86387 10.7963 6.96264 10.7963Z" fill="url(#paint0_linear_23_28)"/>
</g>
<defs>
<linearGradient id="paint0_linear_23_28" x1="14.6663" y1="7.99998" x2="1.33301" y2="7.99998" gradientUnits="userSpaceOnUse">
<stop stop-color="#FB6564"/>
<stop offset="1" stop-color="#A03CEA"/>
</linearGradient>
</defs>
</svg>
