<svg width="40" height="30" viewBox="0 0 40 30" fill="none" xmlns="http://www.w3.org/2000/svg">
<path id="Vector" d="M20 0C31.0484 0 40 6.55706 40 14.65C40 22.7429 31.0484 29.3 20 29.3C8.95161 29.3 0 22.7429 0 14.65C0 6.55706 8.95161 0 20 0ZM10.6452 17.2492H20V21.4374C20 22.0695 21.0484 22.3885 21.6532 21.9396L30.871 15.1521C31.25 14.8745 31.25 14.4314 30.871 14.1538L21.6532 7.36044C21.0403 6.91149 20 7.23048 20 7.86256V12.0508H10.6452C10.1129 12.0508 9.67742 12.3698 9.67742 12.7597V16.5403C9.67742 16.9302 10.1129 17.2492 10.6452 17.2492Z" fill="white"/>
</svg>
